<svg t="1725864239636" class="icon" viewBox="0 0 1024 1024" version="1.1" xmlns="http://www.w3.org/2000/svg" p-id="13927" width="128" height="128"><path d="M603.428571 950.857143a36.571429 36.571429 0 1 1 0 73.142857h-182.857142a36.571429 36.571429 0 1 1 0-73.142857h182.857142zM512 16.822857a431.250286 431.250286 0 0 1 214.016 805.668572l3.364571-2.121143a111.396571 111.396571 0 0 1-83.675428 98.011428l-10.093714 2.194286-9.362286 1.024-7.606857 0.292571H405.357714c-58.075429 0-106.203429-44.617143-110.957714-103.643428l0.219429 2.267428-16.603429-10.24a431.469714 431.469714 0 0 1-194.779429-316.196571l-1.609142-18.724571-0.658286-14.116572-0.219429-13.238857A431.250286 431.250286 0 0 1 512 16.749714z m0 73.142857a357.961143 357.961143 0 0 0-358.107429 357.449143l0.146286 11.483429 0.585143 12.361143a357.888 357.888 0 0 0 189.220571 293.010285l23.405715 11.995429v32.914286l0.146285 4.681142a38.034286 38.034286 0 0 0 37.961143 34.889143H620.251429l4.827428-0.512a38.107429 38.107429 0 0 0 31.670857-37.595428v-34.669715l22.454857-11.190857 10.971429-6.070857A358.107429 358.107429 0 0 0 512 89.965714zM345.234286 406.893714l2.413714 3.657143 71.533714 123.026286 67.291429-115.712a32.036571 32.036571 0 0 1 52.662857-3.949714l2.633143 3.949714 67.291428 115.712 67.291429-115.712a32.036571 32.036571 0 0 1 39.862857-13.531429l3.876572 1.974857a32.036571 32.036571 0 0 1 13.531428 39.862858l-1.974857 3.876571-94.939429 163.328a32.036571 32.036571 0 0 1-52.662857 3.949714l-2.633143-3.949714-67.291428-115.785143-67.291429 115.785143a32.036571 32.036571 0 0 1-52.589714 3.949714l-2.706286-3.949714-99.181714-170.715429a31.963429 31.963429 0 0 1 52.882286-35.766857zM433.737143 157.988571a32.036571 32.036571 0 0 1-18.285714 41.398858 267.702857 267.702857 0 0 0-145.115429 135.753142 32.036571 32.036571 0 0 1-57.929143-27.209142 331.702857 331.702857 0 0 1 179.931429-168.228572 32.036571 32.036571 0 0 1 41.398857 18.285714z" fill="#395BE2" p-id="13928"></path></svg>